<svg xmlns="http://www.w3.org/2000/svg" viewBox="0 0 24 24" fill="none" stroke="currentColor" stroke-width="1.8" stroke-linecap="round" stroke-linejoin="round"><circle cx="12" cy="12" r="3"/><path d="M19.4 15a1.7 1.7 0 0 0 .34 1.87l.06.06a2 2 0 1 1-2.83 2.83l-.06-.06a1.7 1.7 0 0 0-1.87-.34 1.7 1.7 0 0 0-1 1.55V21a2 2 0 1 1-4 0v-.09A1.7 1.7 0 0 0 9 19.4a1.7 1.7 0 0 0-1.87.34l-.06.06a2 2 0 1 1-2.83-2.83l.06-.06A1.7 1.7 0 0 0 4.6 15a1.7 1.7 0 0 0-1.55-1H3a2 2 0 1 1 0-4h.09A1.7 1.7 0 0 0 4.6 9 1.7 1.7 0 0 0 4.26 7.13l-.06-.06a2 2 0 1 1 2.83-2.83l.06.06A1.7 1.7 0 0 0 9 4.6a1.7 1.7 0 0 0 1-1.55V3a2 2 0 1 1 4 0v.09c0 .67.39 1.28 1 1.51a1.7 1.7 0 0 0 1.87-.34l.06-.06a2 2 0 1 1 2.83 2.83l-.06.06A1.7 1.7 0 0 0 19.4 9c.23.61.84 1 1.51 1H21a2 2 0 1 1 0 4h-.09a1.7 1.7 0 0 0-1.51 1z"/></svg>
